<svg preserveAspectRatio="xMidYMid meet" viewBox="119.89079999999998 139.4808 411.39 377.43399999999997" xmlns="http://www.w3.org/2000/svg" version="1.0" style="max-height: 500px" width="411.39" height="377.43399999999997">
 <g fill="#d72729" data-darkreader-inline-fill="" style="--darkreader-inline-fill: var(--darkreader-background-d72729, #962527);">
  <path d="M0 326.50 l0 -326.50 326.50 0 326.50 0 0 326.50 0 326.50 -326.50 0 -326.50 0 0 -326.50z m334.15 129.15 c0.10 -1.35 0.20 -20.25 0.15 -42 l-0.05 -39.65 42.50 -0.10 42.50 -0.15 0 -9.50 0 -9.50 -42.30 -0.15 -42.35 -0.10 -0.35 -31.15 c-0.20 -17.10 -0.30 -36.15 -0.20 -42.35 l0.20 -11.25 -9.35 -0.15 -9.40 -0.10 -0.10 42.55 -0.15 42.60 -42.35 -0.10 -42.40 -0.05 0 9.75 0 9.75 42.50 0 42.50 0 0 42 0 42 9.20 0 9.20 0 0.25 -2.35z m-135.25 -11.10 c2.30 -1.20 4.20 -3.20 5.55 -5.90 l1.05 -2.10 0 -62.90 c0 -39.10 0.20 -64.95 0.50 -68.30 0.70 -7.35 2.70 -16.80 4.80 -22.95 1 -2.85 2 -5.85 2.25 -6.70 1.05 -3.45 8.20 -16.65 12.50 -23 4.90 -7.30 12.95 -16.10 19.90 -21.90 3.40 -2.80 13.80 -10.30 14.30 -10.30 0.15 0 1.40 -0.75 2.85 -1.65 4.55 -2.85 14.15 -7.20 19.40 -8.80 16.55 -5.10 25.85 -6.55 41.85 -6.55 10.05 0 17.40 0.75 27.15 2.80 4.95 1.05 14.50 3.75 16.75 4.70 0.55 0.25 3 1.25 5.45 2.25 2.45 1 5.75 2.50 7.25 3.35 1.55 0.85 3.80 2.10 5.05 2.75 3.95 2.20 12.15 7.70 15 10.10 5.20 4.35 14.10 13.30 17.85 17.95 4.95 6.15 9.15 12.90 12.95 20.85 4.95 10.45 7.20 17.40 9.55 29.70 l1.30 6.80 0.30 66.25 c0.25 55.60 0.40 66.45 1 67.50 2.30 4.10 5.55 6.55 8.85 6.65 3.85 0.10 8.85 -4.15 9.45 -8.10 0.40 -2.50 0.90 -3.30 2.30 -3.45 2.55 -0.30 8.30 -1.80 10.70 -2.75 7.75 -3.20 17.20 -11.55 22.95 -20.30 4.85 -7.35 6.80 -12.20 8.80 -21.80 1.40 -6.90 1.70 -12 1 -17.85 -2.25 -18.40 -12.60 -35.15 -27 -43.70 -5.45 -3.25 -11.05 -5.25 -15.50 -5.65 l-3.75 -0.30 -0.60 -9.50 c-0.65 -10.85 -1.55 -16.90 -3.70 -25.40 -5 -19.90 -13.90 -37.55 -26.70 -52.85 -4.60 -5.50 -15.45 -15.85 -21.10 -20.15 -12.95 -9.75 -26.95 -17.25 -40.15 -21.50 -16.60 -5.35 -27.50 -7.10 -44 -7.05 -15.45 0.10 -28.10 1.85 -40.85 5.65 -16.95 5.10 -34.25 14.15 -48.15 25.25 -5.50 4.40 -17.30 16.35 -21.50 21.80 -3.75 4.90 -6.30 8.65 -10.10 15.05 -7.35 12.30 -14 31.15 -15.95 45.15 -0.30 2.20 -0.65 4.20 -0.80 4.45 -0.15 0.25 -0.40 4.50 -0.60 9.50 l-0.30 9.05 -2 0.45 c-11.70 2.40 -18.65 6.15 -26.80 14.40 -8.95 9.10 -14.65 20.20 -17 33.40 -4.30 23.70 9.35 51.35 30.05 60.95 2.35 1.10 6.60 2.55 9.45 3.30 2.85 0.70 5.30 1.35 5.40 1.50 0.15 0.10 0.45 1.20 0.70 2.40 0.75 3.30 2.55 5.60 5.50 7.10 3.15 1.55 4.40 1.60 6.85 0.35z"/>
 </g>
 <g fill="#f8f8f9" data-darkreader-inline-fill="" style="--darkreader-inline-fill: var(--darkreader-background-f8f8f9, #1c1e1f);">
  <path d="M314 417.80 l0 -42.30 -42.50 0 -42.50 0 0 -11.25 0 -11.25 42.40 0 42.35 0.05 0.15 -42.55 0.10 -42.50 10.90 0.10 10.85 0.15 0 28 c0 15.40 0.05 34.45 0.15 42.35 l0.10 14.40 42.40 0.10 42.35 0.15 0.15 2.90 c0.10 1.95 -0.05 2.85 -0.45 2.85 -0.45 0 -0.50 1.20 -0.20 4.90 0.20 2.65 0.40 6.30 0.45 8.10 l0.05 3.25 -42.50 0.15 -42.50 0.10 0.10 41.55 c0.05 22.85 -0.05 41.85 -0.20 42.25 -0.20 0.55 -0.70 0.65 -1.85 0.40 -1.80 -0.40 -16.40 -0.35 -18.40 0.10 l-1.40 0.30 0 -42.30z"/>
  <path d="M190.55 445.70 c-2.95 -1.50 -4.75 -3.80 -5.50 -7.10 -0.25 -1.20 -0.55 -2.30 -0.70 -2.40 -0.10 -0.15 -2.55 -0.80 -5.40 -1.50 -9.80 -2.45 -17.35 -6.95 -24.25 -14.35 -9.80 -10.60 -15.35 -24.40 -16 -39.85 -0.35 -8.45 0.65 -15.70 3.35 -23.30 6.15 -17.70 20.95 -32.65 35.95 -36.35 1.80 -0.45 4.15 -1 5.25 -1.20 l2 -0.45 0.30 -9.05 c0.20 -5 0.45 -9.25 0.60 -9.50 0.15 -0.25 0.50 -2.25 0.80 -4.45 1.95 -14 8.60 -32.85 15.95 -45.15 6.85 -11.45 11.75 -17.80 20.80 -26.85 9.80 -9.75 16.10 -14.70 28.05 -21.80 5.25 -3.15 15.10 -7.80 22.40 -10.60 9.15 -3.55 20.95 -6.35 32.10 -7.65 8.85 -1 28.35 -1.15 36 -0.20 25.10 3 47.55 12.20 68.40 27.90 5.65 4.30 16.50 14.65 21.10 20.15 12.80 15.30 21.70 32.95 26.70 52.85 2.15 8.50 3.05 14.55 3.70 25.40 l0.60 9.50 3.75 0.30 c8.90 0.75 20.15 7.20 27.80 16 12.65 14.50 17.80 34.55 13.75 53.95 -2.05 9.90 -3.95 14.70 -8.85 22.05 -8.45 12.90 -21.30 21.75 -33.40 23.05 -1.65 0.15 -2.10 0.85 -2.55 3.45 -0.40 2.50 -3.30 6.10 -5.85 7.25 -2.90 1.30 -7.50 1.25 -10.20 -0.15 -1.95 -1.05 -3.75 -2.95 -5.25 -5.65 -0.60 -1.05 -0.75 -11.90 -1 -67.50 l-0.30 -66.25 -1.30 -6.80 c-2.35 -12.30 -4.60 -19.25 -9.55 -29.70 -3.80 -7.95 -8 -14.70 -12.95 -20.85 -3.75 -4.65 -12.65 -13.60 -17.85 -17.95 -2.85 -2.40 -11.05 -7.90 -15 -10.10 -1.25 -0.65 -3.50 -1.90 -5.05 -2.75 -1.50 -0.85 -4.80 -2.35 -7.25 -3.35 -2.45 -1 -4.90 -2 -5.45 -2.25 -1 -0.45 -5.05 -1.65 -10.25 -3.15 -3.60 -1 -14.55 -3.20 -18 -3.60 -1.50 -0.15 -3.65 -0.45 -4.75 -0.60 -3.30 -0.45 -17.25 -0.30 -21.50 0.30 -2.20 0.30 -4.80 0.65 -5.75 0.75 -5.35 0.70 -9.95 1.70 -16.50 3.60 -9.05 2.60 -11.95 3.70 -20 7.65 -16.15 7.90 -32.55 22.10 -42.40 36.70 -4.35 6.40 -11.50 19.60 -12.55 23.05 -0.25 0.85 -1.25 3.85 -2.25 6.70 -2.10 6.15 -4.10 15.60 -4.80 22.95 -0.30 3.35 -0.50 29.20 -0.50 68.30 l0 62.90 -1.05 2.10 c-3.20 6.40 -9.30 8.60 -15.40 5.55z"/>
 </g>
 <g fill="#f3eeed" data-darkreader-inline-fill="" style="--darkreader-inline-fill: var(--darkreader-background-f3eeed, #271e1d);">
  <path d="M319 459.05 c0 -0.80 0.55 -0.95 5.10 -1.30 5.15 -0.40 8.90 0.05 8.90 1.05 0 0.55 -1.35 0.70 -7 0.70 -4.05 0 -7 -0.20 -7 -0.45z"/>
  <path d="M191.15 446 c-1.20 -0.50 -2.15 -1.25 -2.15 -1.60 0 -0.40 0.15 -0.45 0.40 -0.15 0.20 0.30 0.70 0.55 1.10 0.65 0.40 0.10 0.80 0.35 0.90 0.60 0.10 0.20 0.60 0.30 1.10 0.15 0.55 -0.15 1 0 1 0.30 0 0.30 0.35 0.55 0.75 0.55 0.40 0 0.75 -0.20 0.75 -0.50 0 -0.25 0.80 -0.45 1.75 -0.40 1 0.05 2.05 -0.20 2.35 -0.50 0.70 -0.70 2.40 -0.80 2.40 -0.10 0 0.95 -3 2 -5.60 2 -1.55 0 -3.55 -0.45 -4.75 -1z"/>
  <path d="M450.10 446.40 c-1.10 -1.10 -0.65 -1.40 1.95 -1.40 1.65 0 3.45 -0.45 5.25 -1.30 2.80 -1.35 3.55 -1.35 3.05 0 -0.80 2 -8.85 4.10 -10.25 2.70z"/>
  <path d="M446.40 445.10 c-0.80 -0.45 -1.40 -1.15 -1.40 -1.60 0.05 -0.55 0.25 -0.45 0.95 0.35 0.50 0.60 1.05 0.95 1.25 0.80 0.15 -0.20 0.30 -0.05 0.30 0.25 0 0.30 0.35 0.45 0.75 0.30 0.40 -0.20 0.75 -0.05 0.75 0.25 0 0.80 -1.05 0.65 -2.60 -0.35z"/>
  <path d="M461.60 440.20 c-0.55 -0.60 -0.45 -0.70 0.40 -0.70 0.55 0 1 0.20 1 0.45 0 0.85 -0.75 0.95 -1.40 0.25z"/>
  <path d="M206.30 438.15 c0.20 -1.10 0.15 -1.65 -0.25 -1.65 -0.30 0 -0.55 -0.20 -0.55 -0.50 0 -0.25 0.35 -0.50 0.75 -0.50 0.85 0 1 2.30 0.25 3.50 -0.35 0.55 -0.40 0.30 -0.20 -0.85z"/>
  <path d="M462.15 438.65 c-0.95 -0.35 -0.75 -1.50 0.30 -1.80 0.70 -0.15 0.95 0.05 0.95 0.95 0 1.20 -0.15 1.30 -1.25 0.85z"/>
  <path d="M185 437.50 c-0.05 -0.40 -0.10 -0.90 -0.10 -1.05 0.05 -0.15 -2.45 -0.90 -5.55 -1.65 -6.10 -1.50 -16.15 -5.90 -15.55 -6.85 0.20 -0.40 0.45 -0.35 0.75 0.10 0.25 0.40 0.45 0.50 0.45 0.20 0 -0.25 0.25 -0.10 0.55 0.40 0.30 0.45 0.70 0.75 1 0.60 0.25 -0.20 0.45 -0.05 0.45 0.25 0 0.30 0.25 0.40 0.50 0.25 0.30 -0.15 0.50 -0.05 0.50 0.25 0 0.30 0.20 0.40 0.50 0.25 0.25 -0.15 2.10 0.25 4.10 0.95 2 0.65 5.40 1.60 7.50 2.05 4.05 0.95 5.75 2.25 5.25 4.15 -0.20 0.65 -0.25 0.70 -0.35 0.10z"/>
  <path d="M463.80 434.70 c-0.35 -0.90 0.70 -1.50 1.20 -0.70 0.25 0.40 0.45 0.35 0.70 -0.25 0.20 -0.60 0.65 -0.75 1.40 -0.60 0.60 0.20 1.40 0.05 1.75 -0.20 0.30 -0.30 1.10 -0.60 1.75 -0.70 1.55 -0.25 6.30 -1.95 8.15 -2.95 2.75 -1.45 3.85 -0.65 1.40 1 -3.30 2.20 -6.85 3.40 -14 4.65 -1.55 0.30 -2.15 0.20 -2.35 -0.25z"/>
  <path d="M483.35 427.25 c-0.20 -0.45 0.25 -1.10 1.10 -1.75 2.65 -1.85 3.55 -0.95 1.20 1.25 -1.60 1.45 -1.95 1.50 -2.30 0.50z"/>
  <path d="M487.85 423.90 c-0.25 -0.80 6.10 -7.90 7.05 -7.90 0.35 0 0.55 -0.20 0.40 -0.45 -0.50 -0.75 1.35 -3.55 2.35 -3.55 1.40 0 1 1.25 -1.50 4.35 -2.70 3.35 -7.20 8.15 -7.70 8.15 -0.20 0 -0.45 -0.30 -0.60 -0.60z"/>
  <path d="M152.55 417.90 c-3.05 -3.85 -2.95 -3.65 -1.65 -2.95 0.65 0.35 1.30 1 1.50 1.45 0.15 0.45 0.75 1.20 1.25 1.65 0.55 0.40 0.90 1.05 0.80 1.40 -0.15 0.35 -0.95 -0.30 -1.90 -1.55z"/>
  <path d="M498.05 411.55 c-0.45 -0.30 -0.30 -0.85 0.65 -2.30 0.70 -1.05 1.30 -2.10 1.30 -2.30 0 -0.25 0.35 -0.45 0.75 -0.45 0.95 0 0.95 1.15 0.05 2.95 -0.95 1.85 -1.95 2.60 -2.75 2.10z"/>
  <path d="M144.30 404.55 c-0.95 -1.75 -1 -2.25 -0.25 -1.80 0.60 0.40 1.60 2.80 1.25 3.10 -0.10 0.15 -0.60 -0.45 -1 -1.30z"/>
  <path d="M508.50 383.85 c0 -0.75 -0.20 -1.35 -0.50 -1.35 -0.25 0 -0.50 -0.45 -0.50 -1 0 -0.65 0.35 -1 1 -1 0.90 0 1 0.20 0.70 2.15 -0.40 2.50 -0.70 3.05 -0.70 1.20z"/>
  <path d="M229 364.25 c0 -10.40 0.05 -11.25 0.90 -11.25 0.60 0 0.65 0.15 0.25 0.40 -0.45 0.30 -0.55 1.35 -0.30 3.85 0.35 4.25 0.40 3.60 -0.10 11.30 -0.35 6 -0.35 6.35 0.55 6.60 0.80 0.20 0.80 0.25 -0.15 0.30 l-1.15 0.05 0 -11.25z"/>
  <path d="M232.75 375.15 c0.55 -0.15 1.20 -0.55 1.40 -0.95 0.70 -1.20 3.85 -0.70 3.85 0.60 0 0.55 -0.75 0.70 -3.10 0.65 -1.75 -0.05 -2.70 -0.20 -2.15 -0.30z"/>
  <path d="M286.50 374.80 c0 -0.55 0.70 -0.70 3.15 -0.60 1.70 0.10 4.40 0.20 6 0.25 1.55 0 2.85 0.30 2.85 0.55 0 0.30 -2.35 0.50 -6 0.50 -4.85 0 -6 -0.15 -6 -0.70z"/>
  <path d="M301.50 375.05 c0 -0.70 0.70 -0.80 4.25 -0.65 4.50 0.25 4.10 1.10 -0.50 1.10 -2.05 0 -3.75 -0.20 -3.75 -0.45z"/>
  <path d="M309.50 375 c0 -0.25 0.35 -0.50 0.75 -0.50 0.40 0 0.75 0.25 0.75 0.50 0 0.30 -0.35 0.50 -0.75 0.50 -0.40 0 -0.75 -0.20 -0.75 -0.50z"/>
  <path d="M312 375 c0 -0.25 0.35 -0.50 0.75 -0.50 0.40 0 0.75 0.25 0.75 0.50 0 0.30 -0.35 0.50 -0.75 0.50 -0.40 0 -0.75 -0.20 -0.75 -0.50z"/>
  <path d="M411 374.70 c0 -0.90 3.50 -1.15 4.30 -0.30 0.40 0.35 0.70 0.75 0.70 0.80 0 0.05 -1.10 0.10 -2.50 0.10 -1.50 -0.05 -2.50 -0.25 -2.50 -0.60z"/>
  <path d="M418.85 368.40 c-0.45 -3.35 -0.45 -9.60 -0.05 -12 0.20 -1.15 0.65 -1.90 1.20 -2.05 0.80 -0.20 0.90 0.35 0.80 8.10 -0.05 7.15 -0.15 8.30 -0.85 8.45 -0.65 0.10 -0.90 -0.45 -1.10 -2.50z"/>
  <path d="M507.50 370.05 c0 -0.25 0.35 -0.55 0.75 -0.75 0.45 -0.15 0.75 0 0.75 0.45 0 0.40 -0.35 0.75 -0.75 0.75 -0.40 0 -0.75 -0.20 -0.75 -0.45z"/>
  <path d="M334.90 353.45 c-0.40 -0.30 0.05 -0.45 1.25 -0.45 1 0 1.85 0.10 1.85 0.20 0 0.45 -2.50 0.60 -3.10 0.25z"/>
  <path d="M501.30 347.20 c-0.85 -0.60 -0.85 -0.70 -0.20 -0.70 0.45 0 1 0.25 1.15 0.55 0.55 0.85 0.10 0.90 -0.95 0.15z"/>
  <path d="M441.15 345.75 c0 -1.10 0.10 -1.50 0.20 -0.85 0.10 0.60 0.10 1.50 0 2 -0.15 0.45 -0.25 -0.05 -0.20 -1.15z"/>
  <path d="M441.15 340.50 c0 -1.50 0.10 -2.15 0.20 -1.35 0.10 0.75 0.10 1.95 0 2.75 -0.10 0.75 -0.20 0.10 -0.20 -1.40z"/>
  <path d="M474.95 323.25 c-0.35 -0.30 -6.45 -1.70 -9.90 -2.25 -4.10 -0.65 -4.25 -1.45 -0.20 -1.15 3.65 0.25 9.90 1.85 10.40 2.65 0.20 0.30 0.50 0.40 0.75 0.25 0.25 -0.15 0.55 -0.05 0.75 0.25 0.30 0.50 -1.35 0.75 -1.80 0.25z"/>
  <path d="M179.15 320.70 c0.20 -0.20 1 -0.45 1.75 -0.50 0.75 -0.05 1.80 -0.25 2.35 -0.50 0.75 -0.25 0.85 -0.20 0.45 0.25 -0.30 0.30 -1.55 0.70 -2.75 0.85 -1.20 0.15 -2 0.10 -1.80 -0.10z"/>
  <path d="M184.80 319.45 c0.35 -0.40 0.70 -1.15 0.85 -1.70 0.20 -0.65 0.25 -0.45 0.20 0.45 -0.05 0.80 -0.45 1.60 -0.85 1.70 -0.60 0.20 -0.65 0.10 -0.20 -0.45z"/>
  <path d="M460.50 315.55 c0 -1.90 0.20 -3.05 0.65 -3.20 0.50 -0.20 0.50 -0.30 0 -0.30 -1.05 -0.10 -0.75 -1.05 0.30 -1.05 0.90 0 0.95 0.35 0.90 3.75 -0.05 3.25 -0.20 3.75 -0.95 3.75 -0.75 0 -0.90 -0.45 -0.90 -2.95z"/>
  <path d="M440.60 308 c0 -0.95 0.10 -1.35 0.25 -0.85 0.10 0.45 0.10 1.25 0 1.75 -0.15 0.45 -0.25 0.05 -0.25 -0.90z"/>
  <path d="M206.65 305.65 c-0.90 -0.35 -0.80 -1.15 0.10 -1.15 0.40 0 0.75 0.35 0.75 0.75 0 0.40 -0.05 0.75 -0.10 0.70 -0.10 0 -0.45 -0.15 -0.75 -0.30z"/>
  <path d="M207.55 301.65 c0 -0.65 -0.25 -1.15 -0.55 -1.15 -0.25 0 -0.50 -0.35 -0.50 -0.75 0 -0.40 0.35 -0.75 0.75 -0.75 0.90 0 1 -0.80 0.15 -1.15 -0.40 -0.15 -0.30 -0.30 0.25 -0.30 0.55 -0.05 0.85 -0.45 0.85 -1.30 0 -0.70 -0.20 -1.25 -0.50 -1.25 -0.25 0 -0.50 -0.20 -0.50 -0.50 0 -0.25 0.35 -0.50 0.75 -0.50 0.40 0 0.75 -0.20 0.75 -0.50 0 -0.25 -0.20 -0.50 -0.50 -0.50 -0.25 0 -0.50 -0.35 -0.50 -0.75 0 -0.40 0.35 -0.75 0.75 -0.75 0.40 0 0.75 -0.20 0.75 -0.50 0 -0.25 -0.20 -0.50 -0.50 -0.50 -0.25 0 -0.50 -0.20 -0.50 -0.50 0 -0.25 0.35 -0.50 0.75 -0.50 0.40 0 0.75 -0.20 0.75 -0.50 0 -0.25 -0.20 -0.50 -0.50 -0.50 -0.25 0 -0.50 -0.20 -0.50 -0.50 0 -0.25 0.45 -0.50 1.05 -0.50 0.80 0 0.95 0.20 0.70 0.90 -0.20 0.45 -0.45 1.40 -0.55 2.10 -0.20 1.10 -1.15 5.70 -2.20 10.50 -0.25 1.15 -0.40 1.35 -0.45 0.65z"/>
  <path d="M436.90 288.25 c-0.30 -1.50 -0.15 -2.15 0.40 -1.65 0.15 0.20 0.20 0.95 0.10 1.75 l-0.15 1.40 -0.35 -1.50z"/>
  <path d="M209.95 286.45 c-0.55 -0.35 -0.55 -0.45 0.20 -0.45 0.45 0 0.85 -0.20 0.85 -0.50 0 -0.25 -0.20 -0.50 -0.50 -0.50 -0.25 0 -0.50 -0.35 -0.50 -0.75 0 -0.40 0.40 -0.75 0.90 -0.75 0.65 0 0.70 -0.10 0.15 -0.45 -0.85 -0.55 -0.25 -2.55 0.75 -2.55 0.40 0 0.70 -0.20 0.70 -0.50 0 -0.25 -0.20 -0.50 -0.50 -0.50 -0.25 0 -0.35 -0.35 -0.20 -0.75 0.35 -0.85 1.50 -1 2 -0.20 0.15 0.30 0.05 0.80 -0.25 1.10 -0.30 0.30 -0.55 1.05 -0.55 1.65 0 0.65 -0.20 1.30 -0.50 1.45 -0.25 0.15 -0.50 0.80 -0.50 1.40 -0.05 1.60 -1.15 2.90 -2.05 2.30z"/>
  <path d="M213.05 277.55 c-1 -0.65 0.25 -3.50 1.80 -4.10 1.25 -0.45 1.55 -1.70 0.55 -2.10 -0.35 -0.15 -0.20 -0.30 0.35 -0.30 0.85 -0.05 0.85 -0.15 0.25 -0.55 -0.65 -0.40 -0.60 -0.50 0.20 -0.50 0.80 0 0.85 0.25 0.60 1.60 -0.15 0.85 -0.70 2 -1.15 2.50 -0.45 0.50 -0.65 0.90 -0.45 0.90 0.15 0 0 0.70 -0.45 1.50 -0.90 1.70 -0.75 1.65 -1.70 1.05z"/>
  <path d="M225.70 255.30 c0.20 -0.55 0.05 -1.15 -0.30 -1.40 -0.50 -0.30 -0.40 -0.40 0.25 -0.40 0.95 0 1.10 0.90 0.30 2 -0.45 0.60 -0.50 0.60 -0.25 -0.20z"/>
  <path d="M227 253.35 c0 -0.40 -0.30 -0.90 -0.60 -1 -0.35 -0.15 -0.15 -0.30 0.50 -0.30 1.20 -0.05 1.50 -0.80 0.50 -1.20 -0.45 -0.15 -0.35 -0.35 0.25 -0.60 1.55 -0.65 1.75 0.40 0.55 2.20 -0.70 1 -1.20 1.35 -1.20 0.90z"/>
  <path d="M419 251.50 c-0.40 -0.25 -0.55 -0.60 -0.35 -0.80 0.20 -0.20 0.65 -0.10 0.95 0.20 0.75 0.75 0.35 1.20 -0.60 0.60z"/>
  <path d="M229.10 249.20 c-0.85 -0.95 -0.75 -1.20 0.55 -1.20 0.90 0 0.95 -0.10 0.35 -0.50 -0.45 -0.30 -0.55 -0.65 -0.25 -0.85 0.30 -0.25 1.10 -1.20 1.80 -2.15 1.80 -2.40 3.85 -4.50 6.05 -6.15 3.65 -2.70 4.05 -1.10 0.55 2.25 -2.30 2.15 -3.55 3.50 -6.95 7.45 -1.20 1.40 -1.65 1.65 -2.10 1.15z"/>
  <path d="M407.05 238.30 c-0.70 -0.75 -0.95 -1.30 -0.60 -1.55 0.30 -0.15 0.55 -0.05 0.55 0.30 0 0.35 0.35 1.05 0.85 1.55 1.20 1.35 0.50 1.10 -0.80 -0.30z"/>
  <path d="M401.30 233.05 c-0.50 -0.55 -0.80 -1.30 -0.70 -1.65 0.15 -0.40 0.55 -0.10 1.15 0.75 1.05 1.65 0.75 2.25 -0.45 0.90z"/>
  <path d="M245.15 232.75 c-0.65 -0.70 -0.35 -1.25 0.70 -1.25 0.70 0 0.90 1.30 0.30 1.65 -0.25 0.15 -0.65 -0.05 -1 -0.40z"/>
  <path d="M217.90 230.25 c0.60 -1.10 4.10 -4.65 4.10 -4.10 0 0.20 -1.05 1.40 -2.30 2.75 -1.25 1.30 -2.05 1.90 -1.80 1.35z"/>
  <path d="M249.80 228.75 c-0.15 -0.45 0 -0.75 0.45 -0.75 0.80 0 1 0.80 0.30 1.20 -0.25 0.15 -0.55 -0.05 -0.75 -0.45z"/>
  <path d="M253.35 226.30 c-0.15 -0.40 0.55 -1.35 1.80 -2.35 1.15 -0.90 2.20 -1.85 2.25 -2.05 0.10 -0.20 0.50 -0.40 0.85 -0.40 0.35 0 0.75 -0.20 0.85 -0.40 0.15 -0.50 8 -5.10 8.60 -5.10 0.25 0 1.10 -0.30 1.95 -0.70 0.90 -0.35 2.95 -1.20 4.60 -1.80 1.65 -0.60 4.10 -1.50 5.45 -2.05 1.35 -0.50 2.75 -0.95 3.10 -0.95 1 0 0.85 1 -0.15 1.30 -5.05 1.65 -14.40 5.95 -18.55 8.55 -1.45 0.90 -2.75 1.65 -2.85 1.65 -0.15 0 -1.30 0.75 -2.60 1.70 -4.60 3.20 -5 3.40 -5.30 2.60z"/>
  <path d="M389.15 224.10 c-1.15 -0.75 -2.15 -1.65 -2.15 -2.05 0 -0.40 0.50 -0.20 1.30 0.60 0.75 0.75 1.50 1.25 1.70 1.10 0.20 -0.15 0.55 0.10 0.70 0.55 0.15 0.40 0.50 0.60 0.80 0.45 0.25 -0.15 0.50 -0.05 0.50 0.20 0 0.80 -0.50 0.65 -2.85 -0.85z"/>
  <path d="M382.75 220.20 c-3.15 -1.80 -9.70 -5.05 -12.85 -6.35 -1.05 -0.45 -1.90 -1.15 -1.90 -1.55 0 -0.90 0.75 -1.05 1.25 -0.30 0.15 0.25 1.65 0.95 3.30 1.55 1.70 0.60 3.30 1.50 3.60 2 0.30 0.45 0.80 0.75 1.20 0.60 0.35 -0.15 0.80 0.10 0.95 0.55 0.15 0.45 0.55 0.65 0.85 0.45 0.25 -0.15 0.80 0.10 1.15 0.55 0.35 0.50 0.80 0.85 1.05 0.85 1.25 -0.05 2.65 0.65 2.65 1.30 0 0.40 0.25 0.55 0.50 0.40 0.30 -0.15 0.50 -0.05 0.50 0.20 0 0.30 0.25 0.50 0.55 0.45 0.30 -0.10 0.70 0.15 0.80 0.50 0.35 0.90 -0.30 0.70 -3.60 -1.20z"/>
  <path d="M228.50 219.35 c0 -0.10 0.75 -0.70 1.65 -1.35 1 -0.75 1.35 -0.85 0.90 -0.30 -0.65 0.80 -2.55 2.05 -2.55 1.65z"/>
  <path d="M415.55 216.30 c-0.35 -0.40 -1.20 -0.85 -1.90 -1.05 -1 -0.25 -1.15 -0.45 -0.70 -0.90 0.45 -0.45 0.95 -0.20 2.15 1.05 0.90 0.90 1.50 1.60 1.35 1.60 -0.20 0 -0.60 -0.30 -0.90 -0.70z"/>
  <path d="M365.50 212 c-0.70 -0.50 -1.05 -1.10 -0.85 -1.30 0.50 -0.50 2.85 0.85 2.85 1.65 0 0.90 -0.50 0.80 -2 -0.35z"/>
  <path d="M362.50 210.70 c0 -0.45 0.25 -0.70 0.60 -0.60 0.90 0.30 1.05 1.40 0.20 1.40 -0.45 0 -0.80 -0.35 -0.80 -0.80z"/>
  <path d="M284 210.60 c0 -0.20 1.35 -0.80 3 -1.40 2.40 -0.85 3 -0.90 3 -0.35 0 0.70 -0.70 1.10 -2.20 1.35 -0.40 0.05 -0.95 0.25 -1.10 0.45 -0.50 0.45 -2.70 0.45 -2.70 -0.05z"/>
  <path d="M360.30 210.55 c-0.70 -0.25 -0.80 -0.50 -0.35 -0.75 0.75 -0.45 2.05 -0.05 2.05 0.70 0 0.55 -0.35 0.60 -1.70 0.05z"/>
  <path d="M356.75 209.45 c-0.20 -0.30 -0.20 -0.65 -0.05 -0.80 0.15 -0.20 0.30 -0.05 0.30 0.30 0 0.40 0.40 0.55 1 0.40 0.55 -0.15 1 -0.05 1 0.20 0 0.65 -1.85 0.55 -2.25 -0.10z"/>
  <path d="M290.70 208.90 c-0.15 -0.20 -0.15 -0.60 0 -0.85 0.40 -0.65 5.75 -2.20 6.55 -1.90 0.35 0.15 0.75 0.10 0.85 -0.15 0.20 -0.55 2.40 -1.05 5.90 -1.25 1.50 -0.10 3.50 -0.30 4.40 -0.45 1.35 -0.25 1.60 -0.15 1.60 0.70 0 0.85 -0.35 1 -2.35 1.05 -1.35 0.05 -2.75 0.05 -3.25 0 -0.45 -0.05 -0.95 0.15 -1.15 0.45 -0.15 0.25 -1.05 0.50 -1.90 0.50 -0.90 0.05 -3.60 0.55 -6 1.20 -2.40 0.65 -4.50 0.95 -4.65 0.70z"/>
  <path d="M348.90 207.75 c-0.20 -0.20 -10.10 -1.85 -15 -2.50 -3.20 -0.40 -3.25 -1.75 -0.05 -1.75 4.10 0 12.15 1.70 12.15 2.55 0 0.30 0.25 0.35 0.50 0.20 0.30 -0.15 0.50 -0.05 0.50 0.30 0 0.30 0.40 0.45 0.95 0.30 0.60 -0.15 1.10 0.05 1.25 0.45 0.25 0.70 0.15 0.90 -0.30 0.45z"/>
  <path d="M312.80 205.10 c-0.75 -0.70 -0.20 -1.60 0.95 -1.60 1.50 0 1.70 1.25 0.30 1.65 -0.55 0.15 -1.10 0.10 -1.25 -0.05z"/>
  <path d="M317 204.60 c0.40 -0.15 0.90 -0.55 1.15 -0.90 0.25 -0.45 1.85 -0.65 5.60 -0.60 4.60 0 5.35 0.10 5.75 0.90 0.50 0.90 0.15 0.95 -6.35 0.90 -3.80 0 -6.55 -0.15 -6.15 -0.30z"/>
  <path d="M393.75 201.25 c-0.80 -0.35 -1.15 -0.70 -0.70 -0.70 0.40 -0.05 1.20 0.30 1.75 0.70 1.20 0.90 0.90 0.90 -1.05 0z"/>
  <path d="M382.80 196.05 c-0.55 -0.20 -0.75 -0.50 -0.50 -0.65 0.50 -0.30 2.70 0.40 2.70 0.85 0 0.35 -1.05 0.25 -2.20 -0.20z"/>
  <path d="M371 191 c-0.65 -0.45 -0.65 -0.50 0 -0.45 0.40 0 1.20 0.20 1.75 0.45 l1 0.45 -1 0 c-0.55 0 -1.35 -0.20 -1.75 -0.45z"/>
  <path d="M285.75 188.15 c2.25 -0.85 4.60 -1.25 3.95 -0.70 -0.55 0.50 -4.35 1.55 -5.25 1.50 -0.40 0 0.20 -0.35 1.30 -0.80z"/>
  <path d="M354.05 186.45 c-1.20 -0.25 -2.30 -0.55 -2.50 -0.70 -0.45 -0.50 4.15 0.35 4.70 0.80 0.25 0.25 0.35 0.45 0.25 0.40 -0.15 -0.05 -1.25 -0.25 -2.45 -0.50z"/>
  <path d="M347.75 185.20 l-2.50 -0.65 2.25 0.25 c1.25 0.15 2.50 0.30 2.85 0.30 0.35 0.05 0.50 0.25 0.35 0.50 -0.15 0.20 -0.30 0.40 -0.35 0.35 -0.05 0 -1.20 -0.35 -2.60 -0.75z"/>
  <path d="M307.15 184.15 c0.45 -0.10 1.25 -0.10 1.75 0 0.45 0.15 0.05 0.25 -0.90 0.25 -0.95 0 -1.35 -0.10 -0.85 -0.25z"/>
  <path d="M332.30 183.55 c-0.20 -0.25 0.60 -0.35 1.80 -0.20 2.85 0.40 3.05 0.65 0.50 0.65 -1.10 0 -2.15 -0.20 -2.30 -0.45z"/>
 </g>
</svg>